<!-- Generator: Adobe Illustrator 18.0.0, SVG Export Plug-In  -->
<svg version="1.1"
	 xmlns="http://www.w3.org/2000/svg" xmlns:xlink="http://www.w3.org/1999/xlink" xmlns:a="http://ns.adobe.com/AdobeSVGViewerExtensions/3.0/"
	 x="0px" y="0px" width="27.5px" height="27.6px" viewBox="0 0 27.5 27.6" enable-background="new 0 0 27.5 27.6"
	 xml:space="preserve">
<defs>
</defs>
<path fill="none" stroke="#3E3A39" stroke-width="2" stroke-miterlimit="10" d="M22.9,13.8c0-0.7-0.1-1.5-0.3-2.2l3.5-2l-2.6-4.4
	l-3.5,2c-1-1-2.3-1.7-3.7-2.2V1h-5.1v4C9.7,5.5,8.5,6.2,7.4,7.2l-3.5-2L1.4,9.6l3.5,2c-0.2,0.7-0.3,1.4-0.3,2.2
	c0,0.7,0.1,1.5,0.3,2.2l-3.5,2l2.6,4.4l3.5-2c1,1,2.3,1.7,3.7,2.2v4h5.1v-4c1.4-0.4,2.7-1.2,3.7-2.2l3.5,2l2.6-4.4l-3.5-2
	C22.8,15.3,22.9,14.5,22.9,13.8z"/>
<circle fill="none" stroke="#3E3A39" stroke-width="2" stroke-miterlimit="10" cx="13.7" cy="13.8" r="3.7"/>
</svg>
