<!-- Generator: Adobe Illustrator 18.0.0, SVG Export Plug-In  -->
<svg version="1.1"
	 xmlns="http://www.w3.org/2000/svg" xmlns:xlink="http://www.w3.org/1999/xlink" xmlns:a="http://ns.adobe.com/AdobeSVGViewerExtensions/3.0/"
	 x="0px" y="0px" width="373.5px" height="20.4px" viewBox="0 0 373.5 20.4" enable-background="new 0 0 373.5 20.4"
	 xml:space="preserve">
<defs>
</defs>
<g>
	<g>
		<defs>
			<path id="SVGID_1_" d="M35.8,12.2c1.2,0,2.2-1,2.2-2.2s-1-2.2-2.2-2.2c-1.2,0-2.2,1-2.2,2.2S34.5,12.2,35.8,12.2z M35.8,12.8
				c1.5,0,2.8-1.2,2.8-2.8s-1.2-2.8-2.8-2.8S33,8.5,33,10S34.2,12.8,35.8,12.8z M28.8,12.2c1.2,0,2.2-1,2.2-2.2s-1-2.2-2.2-2.2
				s-2.2,1-2.2,2.2S27.5,12.2,28.8,12.2z M28.8,12.8c1.5,0,2.8-1.2,2.8-2.8s-1.2-2.8-2.8-2.8S26,8.5,26,10S27.2,12.8,28.8,12.8z
				 M21.8,12.2c1.2,0,2.2-1,2.2-2.2s-1-2.2-2.2-2.2s-2.2,1-2.2,2.2S20.5,12.2,21.8,12.2z M21.8,12.8c1.5,0,2.8-1.2,2.8-2.8
				s-1.2-2.8-2.8-2.8S19,8.5,19,10S20.2,12.8,21.8,12.8z M14.8,12.8c1.5,0,2.8-1.2,2.8-2.8s-1.2-2.8-2.8-2.8C13.2,7.2,12,8.5,12,10
				S13.2,12.8,14.8,12.8z M7.8,12.8c1.5,0,2.8-1.2,2.8-2.8S9.3,7.2,7.8,7.2S5,8.5,5,10S6.2,12.8,7.8,12.8z"/>
		</defs>
		<clipPath id="SVGID_2_">
			<use xlink:href="#SVGID_1_"  overflow="visible"/>
		</clipPath>
		<g clip-path="url(#SVGID_2_)">
			<defs>
				<rect id="SVGID_3_" x="4.5" y="4.8" width="364" height="12"/>
			</defs>
			<clipPath id="SVGID_4_">
				<use xlink:href="#SVGID_3_"  overflow="visible"/>
			</clipPath>
			<rect x="0" y="2.3" clip-path="url(#SVGID_4_)" fill="#030303" width="43.5" height="15.5"/>
		</g>
	</g>
	<text transform="matrix(1 0 0 1 42.5 14.5)"><tspan x="0" y="0" fill="#010101" font-family="'.HelveticaNeueDeskInterface-Regular'" font-size="12">Sketc</tspan><tspan x="32.6" y="0" fill="#010101" font-family="'.HelveticaNeueDeskInterface-Regular'" font-size="12">h</tspan></text>
	<g>
		<defs>
			<path id="SVGID_5_" d="M99,8.2c-1.6-1.7-3.9-2.7-6.5-2.7c-2.6,0-4.9,1-6.5,2.7l1.1,1.1C88.4,7.9,90.4,7,92.5,7
				c2.1,0,4.1,0.9,5.4,2.3L99,8.2z M96.8,10.3c-1.1-1.1-2.6-1.8-4.3-1.8c-1.7,0-3.2,0.7-4.3,1.8l1.1,1.1c0.8-0.8,1.9-1.4,3.2-1.4
				c1.3,0,2.4,0.5,3.2,1.4L96.8,10.3z M94.6,12.4c-0.5-0.6-1.3-1-2.2-1c-0.8,0-1.6,0.4-2.1,0.9l2.2,2.1L94.6,12.4z"/>
		</defs>
		<clipPath id="SVGID_6_">
			<use xlink:href="#SVGID_5_"  overflow="visible"/>
		</clipPath>
		<g clip-path="url(#SVGID_6_)">
			<defs>
				<rect id="SVGID_7_" x="4.5" y="5" width="364" height="12"/>
			</defs>
			<clipPath id="SVGID_8_">
				<use xlink:href="#SVGID_7_"  overflow="visible"/>
			</clipPath>
			<rect x="81" y="0.5" clip-path="url(#SVGID_8_)" fill="#030303" width="23" height="19"/>
		</g>
	</g>
	<text transform="matrix(1 0 0 1 162.1524 14.5)"><tspan x="0" y="0" fill="#010101" font-family="'.HelveticaNeueDeskInterface-Regular'" font-size="12">9</tspan><tspan x="7.1" y="0" fill="#010101" font-family="'.HelveticaNeueDeskInterface-Regular'" font-size="12">:</tspan><tspan x="10.7" y="0" fill="#010101" font-family="'.HelveticaNeueDeskInterface-Regular'" font-size="12">41</tspan><tspan x="24.9" y="0" fill="#010101" font-family="'.HelveticaNeueDeskInterface-Regular'" font-size="12"> A</tspan><tspan x="36.7" y="0" fill="#010101" font-family="'.HelveticaNeueDeskInterface-Regular'" font-size="12">M</tspan></text>
	<text transform="matrix(1 0 0 1 311.2803 14.5)"><tspan x="0" y="0" fill="#010101" font-family="'.HelveticaNeueDeskInterface-Regular'" font-size="12">10</tspan><tspan x="14.1" y="0" fill="#010101" font-family="'.HelveticaNeueDeskInterface-Regular'" font-size="12">0</tspan></text>
	<g>
		<defs>
			<path id="SVGID_9_" d="M337,5.8c-0.6,0-1,0.5-1,1v6.5c0,0.6,0.4,1,1,1h19.5c0.6,0,1-0.5,1-1V6.8c0-0.6-0.4-1-1-1H337z M358.5,8.2
				v3.5h0.8c0.4,0,0.8-0.3,0.8-0.7V9c0-0.4-0.3-0.7-0.8-0.7H358.5z M337,5.2c-0.8,0-1.5,0.7-1.5,1.5v6.5c0,0.8,0.7,1.5,1.5,1.5h19.5
				c0.8,0,1.5-0.7,1.5-1.5V6.8c0-0.8-0.7-1.5-1.5-1.5H337z"/>
		</defs>
		<clipPath id="SVGID_10_">
			<use xlink:href="#SVGID_9_"  overflow="visible"/>
		</clipPath>
		<g clip-path="url(#SVGID_10_)">
			<defs>
				<rect id="SVGID_11_" x="4.5" y="4.8" width="364" height="12"/>
			</defs>
			<clipPath id="SVGID_12_">
				<use xlink:href="#SVGID_11_"  overflow="visible"/>
			</clipPath>
			<rect x="330.5" y="0.3" clip-path="url(#SVGID_12_)" fill="#030303" width="34.5" height="19.5"/>
		</g>
	</g>
	<g>
		<defs>
			<path id="SVGID_13_" d="M337,6.2c-0.3,0-0.5,0.2-0.5,0.5v6.5c0,0.3,0.2,0.5,0.5,0.5h19.5c0.3,0,0.5-0.2,0.5-0.5V6.7
				c0-0.3-0.2-0.5-0.5-0.5H337z"/>
		</defs>
		<clipPath id="SVGID_14_">
			<use xlink:href="#SVGID_13_"  overflow="visible"/>
		</clipPath>
		<g clip-path="url(#SVGID_14_)">
			<defs>
				<rect id="SVGID_15_" x="4.5" y="4.8" width="364" height="12"/>
			</defs>
			<clipPath id="SVGID_16_">
				<use xlink:href="#SVGID_15_"  overflow="visible"/>
			</clipPath>
			<rect x="331.5" y="1.3" clip-path="url(#SVGID_16_)" fill="#44DB5E" width="30.5" height="17.5"/>
		</g>
	</g>
	<g>
		<defs>
			<polygon id="SVGID_17_" points="367,5 363,10.5 365.5,10.5 364,15 368.5,9 366,9 			"/>
		</defs>
		<clipPath id="SVGID_18_">
			<use xlink:href="#SVGID_17_"  overflow="visible"/>
		</clipPath>
		<g clip-path="url(#SVGID_18_)">
			<defs>
				<rect id="SVGID_19_" x="4.5" y="5" width="364" height="12"/>
			</defs>
			<clipPath id="SVGID_20_">
				<use xlink:href="#SVGID_19_"  overflow="visible"/>
			</clipPath>
			<rect x="358" y="0" clip-path="url(#SVGID_20_)" fill="#010101" width="15.5" height="20"/>
		</g>
	</g>
</g>
</svg>
