<!-- Generator: Adobe Illustrator 18.0.0, SVG Export Plug-In  -->
<svg version="1.1"
	 xmlns="http://www.w3.org/2000/svg" xmlns:xlink="http://www.w3.org/1999/xlink" xmlns:a="http://ns.adobe.com/AdobeSVGViewerExtensions/3.0/"
	 x="0px" y="0px" width="44.6px" height="35.5px" viewBox="0 0 44.6 35.5" enable-background="new 0 0 44.6 35.5"
	 xml:space="preserve">
<defs>
</defs>
<path fill="none" stroke="#939598" stroke-width="2" stroke-linecap="round" stroke-linejoin="round" stroke-miterlimit="10" d="
	M43.6,25.3c0-5.1-4.1-9.3-9.3-9.3c-1.9,0-3.7,0.6-5.1,1.6c-1.3-6.6-7-11.5-14-11.5C7.4,6.1,1,12.4,1,20.3c0,7.9,6.4,14.2,14.2,14.2
	h19.4v0C39.6,34.4,43.6,30.3,43.6,25.3z"/>
<path fill="none" stroke="#939598" stroke-width="2" stroke-linecap="round" stroke-linejoin="round" stroke-miterlimit="10" d="
	M23.6,4.9c2-2.4,5.1-3.9,8.5-3.9c6.2,0,11.1,5,11.1,11.1c0,1.3-0.2,2.6-0.6,3.7"/>
</svg>
